<?xml version="1.0" standalone="no"?>
<!DOCTYPE svg PUBLIC "-//W3C//DTD SVG 20010904//EN"
 "http://www.w3.org/TR/2001/REC-SVG-20010904/DTD/svg10.dtd">
<svg version="1.0" xmlns="http://www.w3.org/2000/svg"
 width="1024.000000pt" height="1024.000000pt" viewBox="0 0 1024.000000 1024.000000"
 preserveAspectRatio="xMidYMid meet">

<g transform="translate(0.000000,1024.000000) scale(0.100000,-0.100000)"
fill="#000000" stroke="none">
<path d="M7 10233 c-4 -3 -7 -2307 -7 -5120 l0 -5113 5120 0 5120 0 0 5120 0
5120 -5113 0 c-2813 0 -5117 -3 -5120 -7z m4764 -1922 c23 -23 29 -38 29 -71
0 -33 6 -48 29 -71 52 -52 113 -34 152 44 46 90 104 127 202 127 117 0 201
-39 237 -110 27 -53 29 -242 3 -279 -16 -24 -34 -33 -308 -156 -260 -117 -367
-166 -485 -223 -135 -65 -183 -74 -222 -42 l-28 21 0 310 c0 350 3 369 69 412
55 37 156 66 229 66 57 1 66 -2 93 -28z m1042 -61 c67 -25 119 -67 136 -108 9
-21 11 -112 9 -318 -3 -330 -5 -337 -87 -381 -89 -47 -200 -23 -251 53 l-25
38 0 349 0 349 29 25 c26 22 37 25 80 20 28 -3 77 -15 109 -27z m-1603 -40
c20 -20 20 -33 20 -925 l0 -904 -22 -12 c-19 -11 -29 -3 -116 87 -158 165
-221 244 -233 288 -8 29 -10 229 -7 666 4 608 5 626 25 671 30 67 81 102 193
134 69 20 117 18 140 -5z m2115 -120 c94 -45 183 -134 216 -215 22 -58 23 -71
27 -373 3 -295 2 -318 -17 -382 -27 -86 -96 -167 -185 -213 l-61 -32 -265 -6
c-146 -3 -377 -5 -515 -4 -307 1 -316 4 -428 127 -78 85 -118 107 -197 107
-83 1 -155 -46 -191 -124 -18 -38 -19 -93 -19 -1276 0 -1164 -1 -1237 -17
-1251 -26 -23 -71 -30 -128 -19 -88 16 -110 50 -352 541 -119 239 -247 503
-285 585 -74 159 -177 355 -187 355 -3 0 -6 -66 -6 -147 0 -82 -1 -288 -2
-460 l-3 -312 -24 -28 c-23 -27 -29 -28 -123 -31 -114 -4 -145 5 -173 50 -19
32 -20 50 -19 808 0 426 4 799 8 829 12 81 29 91 168 91 126 0 154 -8 184 -57
11 -18 150 -293 309 -612 159 -318 294 -582 299 -586 8 -4 11 244 11 830 0
801 1 838 19 891 40 113 130 203 245 245 34 12 149 63 256 114 295 139 373
169 432 162 58 -7 100 -30 122 -67 13 -22 16 -56 16 -164 l0 -136 29 -32 29
-33 306 -3 c339 -3 362 0 386 58 13 32 6 65 -36 155 -23 49 -24 58 -24 334 0
257 2 286 17 304 25 27 90 19 178 -23z m-2625 -40 c19 -19 20 -33 20 -460 0
-423 -1 -441 -21 -497 -32 -87 -115 -165 -205 -193 -62 -19 -92 -21 -304 -21
-134 0 -250 4 -269 10 -57 17 -108 58 -138 108 -24 41 -29 62 -33 143 l-5 95
-150 5 c-82 3 -156 9 -162 13 -7 5 -13 20 -13 35 0 20 23 48 98 121 165 163
319 263 422 277 89 12 171 -30 210 -107 16 -30 20 -59 20 -137 0 -146 18 -182
90 -182 22 0 41 9 61 29 l29 29 0 272 c0 222 3 277 16 308 29 71 89 116 204
153 72 24 106 23 130 -1z m3169 -197 c101 -52 191 -136 225 -212 l27 -60 -3
-341 -3 -342 -24 -19 c-21 -17 -41 -19 -186 -19 -170 0 -181 3 -185 45 -1 11
-2 230 -1 487 1 410 3 468 17 482 24 24 55 19 133 -21z m640 -411 c84 -51 121
-144 121 -299 0 -67 3 -76 26 -98 15 -14 50 -29 82 -36 181 -38 303 -151 419
-384 101 -202 114 -285 64 -391 -34 -72 -96 -129 -162 -148 -36 -11 -135 -15
-404 -17 l-358 -3 -23 28 c-23 26 -24 34 -24 164 0 90 5 146 13 162 21 41 65
49 266 49 176 0 184 0 207 22 34 32 31 71 -7 103 -30 26 -32 26 -205 26 -197
0 -232 8 -259 60 -14 27 -16 73 -13 370 3 324 4 340 24 367 51 69 146 80 233
25z m-4909 -364 c32 -16 52 -36 70 -68 23 -41 25 -56 27 -185 1 -77 2 -153 2
-168 1 -19 13 -41 35 -63 34 -34 34 -34 129 -34 117 0 182 -19 243 -73 25 -22
57 -63 72 -91 l27 -51 0 -275 c0 -262 -1 -278 -23 -331 -29 -73 -77 -128 -143
-164 l-54 -30 -671 -3 -671 -3 -28 22 c-27 22 -27 23 -21 108 15 184 65 348
113 370 29 13 35 10 80 -40 20 -22 51 -43 71 -49 22 -6 202 -10 450 -10 456 0
465 1 502 62 24 39 25 78 5 118 -23 45 -50 54 -175 60 -162 9 -229 42 -284
145 -20 38 -21 55 -24 355 -2 299 -2 317 17 347 44 71 163 95 251 51z m-436
-126 c15 -17 16 -60 14 -453 l-3 -434 -110 0 c-124 1 -169 16 -220 77 -98 115
-95 246 10 463 52 108 174 304 215 345 25 25 71 26 94 2z m4909 -253 c12 -7
25 -17 29 -23 4 -6 8 -89 8 -183 0 -160 -2 -175 -20 -193 -20 -20 -33 -20
-776 -20 l-757 0 -69 25 c-76 27 -112 31 -155 14 -96 -36 -115 -139 -38 -209
l27 -25 436 -5 c383 -5 442 -8 481 -23 134 -52 229 -152 265 -276 14 -48 16
-155 16 -876 0 -777 -1 -823 -18 -838 -16 -15 -20 -15 -52 5 -45 27 -257 197
-292 235 l-27 28 -3 640 -3 640 -24 34 c-44 61 -41 61 -574 61 -538 0 -556 2
-614 62 -59 63 -58 59 -56 355 2 240 5 279 22 327 40 114 128 198 247 236 56
18 106 19 992 19 685 1 939 -2 955 -10z m-53 -633 c22 -14 47 -43 59 -68 20
-42 21 -60 21 -305 0 -144 -3 -268 -6 -277 -3 -9 -12 -16 -20 -16 -17 0 -289
225 -327 270 -36 43 -40 64 -35 189 5 112 18 150 67 195 57 51 173 57 241 12z
m1377 -96 c53 -107 83 -222 83 -317 0 -61 -3 -74 -19 -83 -13 -6 -158 -10
-404 -10 -366 0 -385 -1 -401 -19 -24 -26 -17 -60 17 -85 27 -20 44 -21 320
-26 199 -4 301 -9 320 -18 187 -81 264 -292 211 -572 -23 -123 -105 -317 -127
-303 -6 3 -7 1 -4 -5 4 -5 4 -18 1 -27 -6 -15 -8 -15 -19 5 -10 19 -13 20 -18
6 -4 -10 -3 -14 3 -11 5 3 8 -3 7 -13 0 -9 10 -32 23 -50 30 -40 40 -152 20
-205 -26 -64 -91 -112 -140 -102 -48 9 -69 21 -175 95 -60 42 -145 100 -188
129 -65 44 -82 61 -98 99 -46 108 -91 118 -190 43 -78 -59 -110 -71 -219 -78
-77 -5 -88 -3 -112 17 l-28 21 0 219 c0 185 2 221 16 234 8 9 16 17 17 18 1 1
151 5 334 8 l331 5 26 24 c29 27 33 57 12 87 -13 18 -31 19 -248 24 l-233 5
-67 33 c-80 39 -138 101 -181 192 -27 57 -31 77 -35 178 -7 168 17 253 95 350
19 23 58 56 85 71 84 48 147 55 452 46 309 -8 316 -7 382 64 33 36 43 42 74
39 33 -3 37 -7 77 -88z m-2599 -444 c57 -25 126 -104 152 -174 20 -52 21 -72
18 -222 -4 -189 -14 -224 -88 -304 -56 -61 -83 -76 -225 -130 -66 -24 -190
-74 -275 -109 -270 -112 -429 -168 -463 -165 -53 5 -57 26 -57 281 l0 229 29
29 29 29 164 0 c162 0 165 0 249 33 86 34 97 45 85 91 -10 40 -43 46 -276 46
-217 0 -219 0 -247 24 -28 24 -28 25 -31 168 -3 135 -2 145 18 171 l22 28 427
-3 c390 -3 430 -5 469 -22z m1018 -109 c106 -82 237 -204 264 -245 16 -24 32
-65 36 -90 7 -48 -4 -605 -13 -628 -9 -24 -66 -34 -190 -34 -131 0 -172 10
-193 49 -11 22 -15 963 -3 974 15 16 61 4 99 -26z m-4662 -38 l26 -20 0 -473
c0 -517 1 -508 -59 -521 -70 -15 -172 49 -236 150 -54 84 -76 171 -82 327 -6
152 1 138 -95 173 -56 19 -79 49 -102 124 -22 74 -22 224 0 245 13 14 52 16
268 16 241 0 255 -1 280 -21z m1015 -5 l31 -26 0 -189 c0 -249 20 -229 -231
-229 -152 0 -198 -3 -224 -15 -59 -28 -71 -91 -30 -160 38 -66 54 -70 335 -70
l246 0 94 47 c114 56 146 63 210 48 74 -18 105 -58 114 -148 8 -79 -3 -136
-34 -175 -11 -14 -57 -44 -103 -66 -56 -28 -106 -64 -157 -112 -158 -150 -216
-170 -293 -101 -23 21 -51 44 -61 52 -15 12 -74 16 -306 20 l-287 5 -49 30
c-37 24 -56 45 -79 90 l-30 59 3 305 c2 170 8 326 14 351 14 61 61 132 107
165 58 39 124 56 217 54 76 -2 85 0 131 29 86 55 109 61 235 62 111 0 118 -1
147 -26z m833 -529 c60 -82 136 -190 168 -238 l60 -88 0 -416 c0 -404 1 -418
21 -461 13 -26 38 -54 62 -70 35 -23 50 -27 116 -27 76 1 78 2 461 166 212 91
440 187 508 213 130 51 165 79 160 124 -2 14 -16 34 -31 46 l-28 21 -72 -27
c-40 -14 -204 -80 -366 -147 -361 -148 -407 -163 -485 -164 -103 0 -172 40
-202 119 -14 36 -16 66 -11 166 8 171 -6 162 255 168 l207 5 180 72 c99 39
300 119 447 177 l267 106 98 0 c73 0 104 -4 121 -16 l22 -15 0 -382 c0 -362
-1 -384 -20 -414 -22 -37 -68 -62 -230 -126 -143 -56 -687 -289 -915 -392
-308 -140 -404 -163 -547 -136 -186 37 -352 190 -387 359 -12 57 -16 1487 -5
1517 4 9 13 15 22 13 9 -2 64 -70 124 -153z m3771 -622 c76 -29 187 -103 235
-158 87 -99 132 -225 132 -372 0 -130 -31 -219 -95 -276 -11 -10 -54 -34 -95
-54 -41 -20 -76 -37 -78 -38 -1 -1 -6 -46 -11 -99 -16 -169 -94 -288 -273
-422 -140 -104 -172 -114 -369 -114 -188 0 -204 -5 -290 -96 -90 -94 -187
-126 -256 -84 -52 31 -64 59 -64 143 0 98 12 142 61 214 41 61 91 103 175 146
98 49 145 57 342 57 198 0 215 4 263 55 20 22 25 37 25 82 0 51 -2 57 -41 91
-23 20 -61 49 -86 63 -116 68 -133 269 -28 321 29 15 62 18 188 18 l154 0 29
29 c33 34 35 50 13 92 -27 53 -59 59 -296 59 -302 0 -308 -4 -308 -202 0 -95
-4 -128 -22 -175 -29 -79 -111 -161 -193 -194 -57 -23 -70 -24 -300 -24 -225
0 -243 1 -286 22 -90 42 -150 111 -183 210 -15 46 -17 86 -14 292 3 218 5 241
22 260 36 40 64 29 183 -71 161 -134 202 -177 209 -216 9 -48 29 -88 49 -96
37 -14 86 -6 110 19 l25 24 0 220 c0 128 4 231 10 247 21 55 6 54 525 51 466
-2 482 -3 538 -24z m-4075 -9 l22 -14 0 -400 c0 -387 -1 -401 -20 -420 -81
-81 -288 123 -339 334 -13 54 -16 174 -5 233 12 66 51 140 101 194 85 91 172
118 241 73z m2091 -735 c68 -14 128 -60 153 -116 17 -39 20 -62 16 -169 -2
-83 -7 -127 -16 -136 -9 -9 -64 -14 -190 -18 -173 -5 -179 -6 -232 -34 -151
-82 -173 -90 -236 -94 -150 -10 -260 106 -225 235 13 49 52 85 130 120 141 63
479 207 501 214 35 10 43 10 99 -2z m582 -382 c19 -12 44 -42 57 -67 l23 -45
-1 -552 c-1 -304 -5 -565 -9 -580 l-7 -28 -168 -3 c-116 -2 -173 1 -182 9 -12
9 -14 108 -14 577 0 558 0 566 21 610 33 67 94 102 179 102 53 0 74 -5 101
-23z m-544 -258 c47 -17 83 -60 100 -119 13 -46 15 -88 9 -266 -3 -117 -8
-219 -11 -227 -10 -26 -51 -40 -100 -34 -59 6 -110 53 -159 147 -74 140 -109
346 -72 418 18 34 54 68 86 81 34 13 112 13 147 0z"/>
</g>
</svg>
